<svg width="25" height="24" viewBox="0 0 25 24" fill="none" xmlns="http://www.w3.org/2000/svg">
<path fill-rule="evenodd" clip-rule="evenodd" d="M5.5 19H20.5C20.7652 19 21.0196 19.1054 21.2071 19.2929C21.3946 19.4804 21.5 19.7348 21.5 20C21.5 20.2652 21.3946 20.5196 21.2071 20.7071C21.0196 20.8946 20.7652 21 20.5 21H4.5C4.23478 21 3.98043 20.8946 3.79289 20.7071C3.60536 20.5196 3.5 20.2652 3.5 20V12C3.5 11.7348 3.60536 11.4804 3.79289 11.2929C3.98043 11.1054 4.23478 11 4.5 11C4.76522 11 5.01957 11.1054 5.20711 11.2929C5.39464 11.4804 5.5 11.7348 5.5 12V19ZM10.5 15C10.5 15.2652 10.3946 15.5196 10.2071 15.7071C10.0196 15.8946 9.76522 16 9.5 16C9.23478 16 8.98043 15.8946 8.79289 15.7071C8.60536 15.5196 8.5 15.2652 8.5 15V6C8.5 5.73478 8.60536 5.48043 8.79289 5.29289C8.98043 5.10536 9.23478 5 9.5 5C9.76522 5 10.0196 5.10536 10.2071 5.29289C10.3946 5.48043 10.5 5.73478 10.5 6V15ZM12.5 15V8C12.5 7.73478 12.6054 7.48043 12.7929 7.29289C12.9804 7.10536 13.2348 7 13.5 7C13.7652 7 14.0196 7.10536 14.2071 7.29289C14.3946 7.48043 14.5 7.73478 14.5 8V15C14.5 15.2652 14.3946 15.5196 14.2071 15.7071C14.0196 15.8946 13.7652 16 13.5 16C13.2348 16 12.9804 15.8946 12.7929 15.7071C12.6054 15.5196 12.5 15.2652 12.5 15ZM16.5 4C16.5 3.73478 16.6054 3.48043 16.7929 3.29289C16.9804 3.10536 17.2348 3 17.5 3C17.7652 3 18.0196 3.10536 18.2071 3.29289C18.3946 3.48043 18.5 3.73478 18.5 4V15C18.5 15.2652 18.3946 15.5196 18.2071 15.7071C18.0196 15.8946 17.7652 16 17.5 16C17.2348 16 16.9804 15.8946 16.7929 15.7071C16.6054 15.5196 16.5 15.2652 16.5 15V4Z" fill="white"/>
</svg>
